<svg xmlns="http://www.w3.org/2000/svg" xmlns:xlink="http://www.w3.org/1999/xlink" overflow="hidden" viewBox="0 0 640 320"><g><rect x="0" y="0" width="1280" height="720" fill="#FFFFFF"/><rect x="454" y="252" width="297" height="207" stroke="#FF0000" stroke-width="8" stroke-miterlimit="8" fill="none"/><rect x="453.5" y="161.5" width="134" height="32" stroke="#FFC000" stroke-width="3" stroke-miterlimit="8" fill="none"/><text font-family="Neo Sans Std,Neo Sans Std_MSFontService,sans-serif" font-weight="400" font-size="16" transform="translate(466.975 182)">MoLE</text><text font-family="Neo Sans Std,Neo Sans Std_MSFontService,sans-serif" font-weight="400" font-size="16" transform="translate(508.809 182)">Classifier</text><path d="M0-0.666667 34.3091-0.666667 34.3091 177.71 33.6424 177.044 60.6182 177.044 60.6182 178.377 32.9757 178.377 32.9757 0 33.6424 0.666667 0 0.666667ZM59.2848 173.71 67.2848 177.71 59.2848 181.71Z" fill="#00B050" transform="matrix(1 0 0 -1 385.5 355.211)"/><path d="M385.5 354.833 420.678 354.833 420.678 356.109 420.011 355.443 447.856 355.443 447.856 356.776 419.344 356.776 419.344 355.5 420.011 356.167 385.5 356.167ZM446.522 352.109 454.522 356.109 446.522 360.109Z" fill="#00B050"/><path d="M478.167 194.5 478.167 244.076 476.833 244.076 476.833 194.5ZM481.5 242.742 477.5 250.742 473.5 242.742Z" fill="#00B050"/><path d="M0.666667-1.21893e-06 0.666759 50.7537-0.666574 50.7537-0.666667 1.21893e-06ZM4.00009 49.4204 0.000104987 57.4204-3.99991 49.4204Z" fill="#00B050" transform="matrix(1 0 0 -1 568.5 250.92)"/><text font-family="Neo Sans Std,Neo Sans Std_MSFontService,sans-serif" font-weight="400" font-size="11" transform="translate(492.689 212)">Generate</text><text font-family="Neo Sans Std,Neo Sans Std_MSFontService,sans-serif" font-weight="400" font-size="11" transform="translate(492.689 225)">hidden state</text><text font-family="Neo Sans Std,Neo Sans Std_MSFontService,sans-serif" font-weight="400" font-size="16" transform="translate(462.118 277)">Base model</text><rect x="508.5" y="318.5" width="58" height="20" stroke="#172C51" stroke-width="1.33333" stroke-miterlimit="8" fill="#4472C4"/><text fill="#FFFFFF" font-family="Cambria Math,Cambria Math_MSFontService,sans-serif" font-weight="400" font-size="13" transform="translate(514.646 333)">ğ¿</text><text fill="#FFFFFF" font-family="Cambria Math,Cambria Math_MSFontService,sans-serif" font-weight="400" font-size="13" transform="translate(521.812 333)">ğ‘œğ‘…ğ´</text><text fill="#FFFFFF" font-family="Cambria Math,Cambria Math_MSFontService,sans-serif" font-weight="400" font-size="13" transform="translate(546.112 333)"/><text fill="#FFFFFF" font-family="Cambria Math,Cambria Math_MSFontService,sans-serif" font-weight="400" font-size="13" transform="translate(549.112 333)">1</text><rect x="577.5" y="318.5" width="58" height="20" stroke="#172C51" stroke-width="1.33333" stroke-miterlimit="8" fill="#4472C4"/><text fill="#FFFFFF" font-family="Cambria Math,Cambria Math_MSFontService,sans-serif" font-weight="400" font-size="13" transform="translate(583.846 333)">ğ¿ğ‘œğ‘…ğ´</text><text fill="#FFFFFF" font-family="Cambria Math,Cambria Math_MSFontService,sans-serif" font-weight="400" font-size="13" transform="translate(615.312 333)"/><text fill="#FFFFFF" font-family="Cambria Math,Cambria Math_MSFontService,sans-serif" font-weight="400" font-size="13" transform="translate(618.312 333)">2</text><rect x="646.5" y="319.5" width="58" height="20" stroke="#172C51" stroke-width="1.33333" stroke-miterlimit="8" fill="#4472C4"/><text fill="#FFFFFF" font-family="Cambria Math,Cambria Math_MSFontService,sans-serif" font-weight="400" font-size="13" transform="translate(652.565 334)">ğ¿</text><text fill="#FFFFFF" font-family="Cambria Math,Cambria Math_MSFontService,sans-serif" font-weight="400" font-size="13" transform="translate(659.732 334)">ğ‘œğ‘…ğ´</text><text fill="#FFFFFF" font-family="Cambria Math,Cambria Math_MSFontService,sans-serif" font-weight="400" font-size="13" transform="translate(684.032 334)"/><text fill="#FFFFFF" font-family="Cambria Math,Cambria Math_MSFontService,sans-serif" font-weight="400" font-size="13" transform="translate(687.032 334)">ğ‘›</text><path d="M0.47247-0.470336 63.8438 63.1885 62.8988 64.1292-0.47247 0.470336ZM65.2654 59.8919 68.0746 68.3835 59.5958 65.5359Z" fill="#00B050" transform="matrix(-1 0 0 1 605.575 250.5)"/><path d="M606.167 250.489 607.182 312.207 605.849 312.229 604.833 250.511ZM610.493 310.819 606.625 318.884 602.494 310.95Z" fill="#00B050"/><path d="M605.968 250.025 671.345 314.464 670.409 315.413 605.032 250.975ZM672.735 311.154 675.625 319.618 667.12 316.851Z" fill="#00B050"/><rect x="557.5" y="378.5" width="98" height="20" stroke="#172C51" stroke-width="1.33333" stroke-miterlimit="8" fill="#4472C4"/><text fill="#FFFFFF" font-family="Neo Sans Std,Neo Sans Std_MSFontService,sans-serif" font-weight="400" font-size="13" transform="translate(586.35 393)">Mixing</text><path d="M537.835 337.924 600.708 374.453 600.038 375.606 537.165 339.077ZM601.23 370.901 606.137 378.378 597.211 377.818Z" fill="#00B050"/><path d="M0.6666-0.0094048 1.13518 33.2027-0.198024 33.2215-0.6666 0.0094048ZM4.44937 31.8225 0.562625 39.8781-3.54983 31.9353Z" fill="#00B050" transform="matrix(-1 0 0 1 607.063 338.5)"/><path d="M0.326932-0.580999 64.0794 35.293 63.4256 36.455-0.326932 0.580999ZM64.5521 31.7341 69.5625 39.1433 60.6289 38.7061Z" fill="#00B050" transform="matrix(-1 0 0 1 676.063 339.5)"/><rect x="477.5" y="289.5" width="258" height="120" stroke="#000000" stroke-width="3" stroke-miterlimit="8" fill="none"/><text font-family="Neo Sans Std,Neo Sans Std_MSFontService,sans-serif" font-weight="400" font-size="13" transform="translate(479.378 427)">For each</text><text font-family="Neo Sans Std,Neo Sans Std_MSFontService,sans-serif" font-weight="400" font-size="13" transform="translate(532.545 427)">LoRA</text><text font-family="Neo Sans Std,Neo Sans Std_MSFontService,sans-serif" font-weight="400" font-size="13" transform="translate(566.878 427)">layer</text><text font-family="Calibri,Calibri_MSFontService,sans-serif" font-weight="400" font-size="13" transform="translate(532.986 304)">Î±</text><text font-family="Cambria Math,Cambria Math_MSFontService,sans-serif" font-weight="400" font-size="9" transform="translate(540.179 307)">1</text><text font-family="Calibri,Calibri_MSFontService,sans-serif" font-weight="400" font-size="13" transform="translate(589.565 304)">Î±</text><text font-family="Cambria Math,Cambria Math_MSFontService,sans-serif" font-weight="400" font-size="9" transform="translate(597.065 307)">2</text><text font-family="Calibri,Calibri_MSFontService,sans-serif" font-weight="400" font-size="13" transform="translate(639.599 304)">Î±</text><text font-family="Cambria Math,Cambria Math_MSFontService,sans-serif" font-weight="400" font-size="9" transform="translate(647.099 307)">ğ‘›</text><text font-family="Calibri,Calibri_MSFontService,sans-serif" font-weight="400" font-size="13" transform="translate(484.577 359)">Î±</text><text font-family="Cambria Math,Cambria Math_MSFontService,sans-serif" font-weight="400" font-size="9" transform="translate(491.771 361)">1</text><text font-family="Cambria Math,Cambria Math_MSFontService,sans-serif" font-weight="400" font-size="13" transform="translate(497.991 359)">(</text><text font-family="Cambria Math,Cambria Math_MSFontService,sans-serif" font-weight="400" font-size="13" transform="translate(503.491 359)">ğ´</text><text font-family="Cambria Math,Cambria Math_MSFontService,sans-serif" font-weight="400" font-size="9" transform="translate(511.684 361)">1</text><text font-family="Cambria Math,Cambria Math_MSFontService,sans-serif" font-weight="400" font-size="13" transform="translate(517.904 359)">,</text><text font-family="Cambria Math,Cambria Math_MSFontService,sans-serif" font-weight="400" font-size="13" transform="translate(522.791 359)">ğµ</text><text font-family="Cambria Math,Cambria Math_MSFontService,sans-serif" font-weight="400" font-size="9" transform="translate(530.731 361)">1</text><text font-family="Cambria Math,Cambria Math_MSFontService,sans-serif" font-weight="400" font-size="13" transform="translate(536.951 359)">)</text><path d="M2.16504e-06-0.666667 25.6613-0.666583 25.6613 0.66675-2.16504e-06 0.666667ZM24.328-3.99992 32.328 0.000104987 24.328 4.00008Z" fill="#00B050" transform="matrix(1 0 0 -1 655.5 388.5)"/><text font-family="Cambria Math,Cambria Math_MSFontService,sans-serif" font-weight="400" font-size="13" transform="translate(689.616 391)">ğ´</text><text font-family="Cambria Math,Cambria Math_MSFontService,sans-serif" font-weight="400" font-size="13" transform="translate(698.25 391)">,</text><text font-family="Cambria Math,Cambria Math_MSFontService,sans-serif" font-weight="400" font-size="13" transform="translate(703.136 391)">ğµ</text><path d="M297.5 334.167C297.5 328.276 302.276 323.5 308.167 323.5L374.833 323.5C380.724 323.5 385.5 328.276 385.5 334.167L385.5 376.833C385.5 382.724 380.724 387.5 374.833 387.5L308.167 387.5C302.276 387.5 297.5 382.724 297.5 376.833Z" stroke="#172C51" stroke-width="1.33333" stroke-miterlimit="8" fill="#4472C4" fill-rule="evenodd"/><text fill="#FFFFFF" font-family="Neo Sans Std,Neo Sans Std_MSFontService,sans-serif" font-weight="400" font-size="24" transform="translate(313.659 363)">Input</text><path d="M819.5 333.167C819.5 327.276 824.276 322.5 830.167 322.5L909.833 322.5C915.724 322.5 920.5 327.276 920.5 333.167L920.5 375.833C920.5 381.724 915.724 386.5 909.833 386.5L830.167 386.5C824.276 386.5 819.5 381.724 819.5 375.833Z" stroke="#172C51" stroke-width="1.33333" stroke-miterlimit="8" fill="#4472C4" fill-rule="evenodd"/><text fill="#FFFFFF" font-family="Neo Sans Std,Neo Sans Std_MSFontService,sans-serif" font-weight="400" font-size="24" transform="translate(832.505 363)">Output</text><path d="M0.0118168-0.666562 61.9834 0.432068 61.9598 1.76519-0.0118168 0.666562ZM60.7094-2.92437 68.6373 1.2168 60.5676 5.07437Z" fill="#00B050" transform="matrix(1 0 0 -1 751.5 355.717)"/><text font-family="Calibri,Calibri_MSFontService,sans-serif" font-weight="400" font-size="13" transform="translate(484.153 375)">Î±</text><text font-family="Cambria Math,Cambria Math_MSFontService,sans-serif" font-weight="400" font-size="9" transform="translate(491.653 377)">2</text><text font-family="Cambria Math,Cambria Math_MSFontService,sans-serif" font-weight="400" font-size="13" transform="translate(497.873 375)">(</text><text font-family="Cambria Math,Cambria Math_MSFontService,sans-serif" font-weight="400" font-size="13" transform="translate(503.373 375)">ğ´</text><text font-family="Cambria Math,Cambria Math_MSFontService,sans-serif" font-weight="400" font-size="9" transform="translate(511.873 377)">2</text><text font-family="Cambria Math,Cambria Math_MSFontService,sans-serif" font-weight="400" font-size="13" transform="translate(518.093 375)">,</text><text font-family="Cambria Math,Cambria Math_MSFontService,sans-serif" font-weight="400" font-size="13" transform="translate(522.979 375)">ğµ</text><text font-family="Cambria Math,Cambria Math_MSFontService,sans-serif" font-weight="400" font-size="9" transform="translate(531.226 377)">2</text><text font-family="Cambria Math,Cambria Math_MSFontService,sans-serif" font-weight="400" font-size="13" transform="translate(537.446 375)">)</text><text font-family="Calibri,Calibri_MSFontService,sans-serif" font-weight="400" font-size="13" transform="translate(484.556 395)">Î±</text><text font-family="Cambria Math,Cambria Math_MSFontService,sans-serif" font-weight="400" font-size="9" transform="translate(492.056 397)">ğ‘›</text><text font-family="Cambria Math,Cambria Math_MSFontService,sans-serif" font-weight="400" font-size="13" transform="translate(499.109 395)">(</text><text font-family="Cambria Math,Cambria Math_MSFontService,sans-serif" font-weight="400" font-size="13" transform="translate(504.609 395)">ğ´</text><text font-family="Cambria Math,Cambria Math_MSFontService,sans-serif" font-weight="400" font-size="9" transform="translate(513.109 397)">ğ‘›</text><text font-family="Cambria Math,Cambria Math_MSFontService,sans-serif" font-weight="400" font-size="13" transform="translate(520.162 395)">,</text><text font-family="Cambria Math,Cambria Math_MSFontService,sans-serif" font-weight="400" font-size="13" transform="translate(525.049 395)">ğµ</text><text font-family="Cambria Math,Cambria Math_MSFontService,sans-serif" font-weight="400" font-size="9" transform="translate(532.709 397)">ğ‘›</text><text font-family="Cambria Math,Cambria Math_MSFontService,sans-serif" font-weight="400" font-size="13" transform="translate(539.762 395)">)</text><path d="M587.5 177.167 605.312 177.167 605.312 244.136 604.646 244.136 604.646 177.5 604.979 177.833 587.5 177.833ZM608.979 242.802 604.979 250.802 600.979 242.802Z" fill="#00B050"/></g></svg>