<svg width="645" height="320" xmlns="http://www.w3.org/2000/svg" xmlns:xlink="http://www.w3.org/1999/xlink" overflow="hidden"><g><rect x="0" y="0" width="1280" height="720" fill="#FFFFFF"/><rect x="167" y="101" width="296" height="207" stroke="#FF0000" stroke-width="8" stroke-miterlimit="8" fill="none"/><rect x="165.5" y="10.5001" width="135" height="33" stroke="#FFC000" stroke-width="3" stroke-miterlimit="8" fill="none"/><text font-family="Neo Sans Std,Neo Sans Std_MSFontService,sans-serif" font-weight="400" font-size="16" transform="translate(179.864 32)">MoLE</text><text font-family="Neo Sans Std,Neo Sans Std_MSFontService,sans-serif" font-weight="400" font-size="16" transform="translate(221.698 32)">Classifier</text><path d="M0-0.666667 34.3091-0.666667 34.3091 177.71 33.6424 177.044 60.6182 177.044 60.6182 178.377 32.9757 178.377 32.9757 0 33.6424 0.666667 0 0.666667ZM59.2848 173.71 67.2848 177.71 59.2848 181.71Z" fill="#00B050" transform="matrix(1 0 0 -1 98.5001 204.21)"/><path d="M98.5001 203.833 133.678 203.833 133.678 205.109 133.011 204.443 160.856 204.443 160.856 205.776 132.344 205.776 132.344 204.5 133.011 205.167 98.5001 205.167ZM159.522 201.109 167.522 205.109 159.522 209.109Z" fill="#00B050"/><path d="M191.167 44.5001 191.167 94.0758 189.833 94.0758 189.833 44.5001ZM194.5 92.7425 190.5 100.742 186.5 92.7425Z" fill="#00B050"/><path d="M0.666667-1.21893e-06 0.666759 50.7537-0.666574 50.7537-0.666667 1.21893e-06ZM4.00009 49.4204 0.000104987 57.4204-3.99991 49.4204Z" fill="#00B050" transform="matrix(1 0 0 -1 281.5 100.92)"/><text font-family="Neo Sans Std,Neo Sans Std_MSFontService,sans-serif" font-weight="400" font-size="11" transform="translate(205.578 61)">Generate</text><text font-family="Neo Sans Std,Neo Sans Std_MSFontService,sans-serif" font-weight="400" font-size="11" transform="translate(205.578 74)">hidden state</text><text font-family="Neo Sans Std,Neo Sans Std_MSFontService,sans-serif" font-weight="400" font-size="16" transform="translate(175.007 126)">Base model</text><rect x="221.5" y="168.5" width="58" height="19" stroke="#172C51" stroke-width="1.33333" stroke-miterlimit="8" fill="#4472C4"/><text fill="#FFFFFF" font-family="Cambria Math,Cambria Math_MSFontService,sans-serif" font-weight="400" font-size="13" transform="translate(227.535 183)">ğ¿</text><text fill="#FFFFFF" font-family="Cambria Math,Cambria Math_MSFontService,sans-serif" font-weight="400" font-size="13" transform="translate(234.701 183)">ğ‘œğ‘…ğ´</text><text fill="#FFFFFF" font-family="Cambria Math,Cambria Math_MSFontService,sans-serif" font-weight="400" font-size="13" transform="translate(259.001 183)"></text><text fill="#FFFFFF" font-family="Cambria Math,Cambria Math_MSFontService,sans-serif" font-weight="400" font-size="13" transform="translate(262.001 183)">1</text><rect x="290.5" y="168.5" width="58" height="19" stroke="#172C51" stroke-width="1.33333" stroke-miterlimit="8" fill="#4472C4"/><text fill="#FFFFFF" font-family="Cambria Math,Cambria Math_MSFontService,sans-serif" font-weight="400" font-size="13" transform="translate(296.735 183)">ğ¿ğ‘œğ‘…ğ´</text><text fill="#FFFFFF" font-family="Cambria Math,Cambria Math_MSFontService,sans-serif" font-weight="400" font-size="13" transform="translate(328.201 183)"></text><text fill="#FFFFFF" font-family="Cambria Math,Cambria Math_MSFontService,sans-serif" font-weight="400" font-size="13" transform="translate(331.201 183)">2</text><rect x="359.5" y="169.5" width="58" height="19" stroke="#172C51" stroke-width="1.33333" stroke-miterlimit="8" fill="#4472C4"/><text fill="#FFFFFF" font-family="Cambria Math,Cambria Math_MSFontService,sans-serif" font-weight="400" font-size="13" transform="translate(365.454 183)">ğ¿</text><text fill="#FFFFFF" font-family="Cambria Math,Cambria Math_MSFontService,sans-serif" font-weight="400" font-size="13" transform="translate(372.621 183)">ğ‘œğ‘…ğ´</text><text fill="#FFFFFF" font-family="Cambria Math,Cambria Math_MSFontService,sans-serif" font-weight="400" font-size="13" transform="translate(396.921 183)"></text><text fill="#FFFFFF" font-family="Cambria Math,Cambria Math_MSFontService,sans-serif" font-weight="400" font-size="13" transform="translate(399.921 183)">ğ‘›</text><path d="M0.47247-0.470336 63.8438 63.1885 62.8988 64.1292-0.47247 0.470336ZM65.2654 59.8919 68.0746 68.3835 59.5958 65.5359Z" fill="#00B050" transform="matrix(-1 0 0 1 318.575 99.5001)"/><path d="M319.167 99.4891 320.182 161.207 318.849 161.229 317.833 99.511ZM323.493 159.819 319.625 167.884 315.494 159.95Z" fill="#00B050"/><path d="M318.968 99.0253 384.345 163.464 383.409 164.413 318.032 99.9749ZM385.736 160.154 388.625 168.618 380.12 165.851Z" fill="#00B050"/><rect x="270.5" y="227.5" width="98" height="20" stroke="#172C51" stroke-width="1.33333" stroke-miterlimit="8" fill="#4472C4"/><text fill="#FFFFFF" font-family="Neo Sans Std,Neo Sans Std_MSFontService,sans-serif" font-weight="400" font-size="13" transform="translate(299.239 242)">Mixing</text><path d="M250.835 186.924 313.708 223.453 313.038 224.606 250.165 188.076ZM314.23 219.901 319.137 227.378 310.211 226.818Z" fill="#00B050"/><path d="M0.6666-0.0094048 1.13518 33.2027-0.198024 33.2215-0.6666 0.0094048ZM4.44937 31.8225 0.562625 39.8781-3.54983 31.9353Z" fill="#00B050" transform="matrix(-1 0 0 1 320.063 187.5)"/><path d="M0.326932-0.580999 64.0794 35.293 63.4256 36.455-0.326932 0.580999ZM64.5521 31.7341 69.5625 39.1433 60.6289 38.7061Z" fill="#00B050" transform="matrix(-1 0 0 1 389.063 188.5)"/><rect x="190.5" y="138.5" width="258" height="120" stroke="#000000" stroke-width="3" stroke-miterlimit="8" fill="none"/><text font-family="Neo Sans Std,Neo Sans Std_MSFontService,sans-serif" font-weight="400" font-size="13" transform="translate(192.267 276)">For each</text><text font-family="Neo Sans Std,Neo Sans Std_MSFontService,sans-serif" font-weight="400" font-size="13" transform="translate(245.434 276)">LoRA</text><text font-family="Neo Sans Std,Neo Sans Std_MSFontService,sans-serif" font-weight="400" font-size="13" transform="translate(279.767 276)">layer</text><text font-family="Calibri,Calibri_MSFontService,sans-serif" font-weight="400" font-size="13" transform="translate(245.875 153)">Î±</text><text font-family="Cambria Math,Cambria Math_MSFontService,sans-serif" font-weight="400" font-size="9" transform="translate(253.068 156)">1</text><text font-family="Calibri,Calibri_MSFontService,sans-serif" font-weight="400" font-size="13" transform="translate(302.454 153)">Î±</text><text font-family="Cambria Math,Cambria Math_MSFontService,sans-serif" font-weight="400" font-size="9" transform="translate(309.954 156)">2</text><text font-family="Calibri,Calibri_MSFontService,sans-serif" font-weight="400" font-size="13" transform="translate(352.488 153)">Î±</text><text font-family="Cambria Math,Cambria Math_MSFontService,sans-serif" font-weight="400" font-size="9" transform="translate(359.988 156)">ğ‘›</text><text font-family="Calibri,Calibri_MSFontService,sans-serif" font-weight="400" font-size="13" transform="translate(197.466 208)">Î±</text><text font-family="Cambria Math,Cambria Math_MSFontService,sans-serif" font-weight="400" font-size="9" transform="translate(204.659 211)">1</text><text font-family="Cambria Math,Cambria Math_MSFontService,sans-serif" font-weight="400" font-size="13" transform="translate(210.879 208)">(</text><text font-family="Cambria Math,Cambria Math_MSFontService,sans-serif" font-weight="400" font-size="13" transform="translate(216.379 208)">ğ´</text><text font-family="Cambria Math,Cambria Math_MSFontService,sans-serif" font-weight="400" font-size="9" transform="translate(224.573 211)">1</text><text font-family="Cambria Math,Cambria Math_MSFontService,sans-serif" font-weight="400" font-size="13" transform="translate(230.793 208)">,</text><text font-family="Cambria Math,Cambria Math_MSFontService,sans-serif" font-weight="400" font-size="13" transform="translate(235.679 208)">ğµ</text><text font-family="Cambria Math,Cambria Math_MSFontService,sans-serif" font-weight="400" font-size="9" transform="translate(243.619 211)">1</text><text font-family="Cambria Math,Cambria Math_MSFontService,sans-serif" font-weight="400" font-size="13" transform="translate(249.839 208)">)</text><path d="M2.16504e-06-0.666667 25.6613-0.666583 25.6613 0.66675-2.16504e-06 0.666667ZM24.328-3.99992 32.328 0.000104987 24.328 4.00008Z" fill="#00B050" transform="matrix(1 0 0 -1 368.5 237.5)"/><text font-family="Cambria Math,Cambria Math_MSFontService,sans-serif" font-weight="400" font-size="13" transform="translate(402.505 240)">ğ´</text><text font-family="Cambria Math,Cambria Math_MSFontService,sans-serif" font-weight="400" font-size="13" transform="translate(411.138 240)">,</text><text font-family="Cambria Math,Cambria Math_MSFontService,sans-serif" font-weight="400" font-size="13" transform="translate(416.025 240)">ğµ</text><path d="M10.5001 183.167C10.5001 177.276 15.2758 172.5 21.167 172.5L87.8331 172.5C93.7243 172.5 98.5001 177.276 98.5001 183.167L98.5001 225.833C98.5001 231.724 93.7243 236.5 87.8331 236.5L21.167 236.5C15.2758 236.5 10.5001 231.724 10.5001 225.833Z" stroke="#172C51" stroke-width="1.33333" stroke-miterlimit="8" fill="#4472C4" fill-rule="evenodd"/><text fill="#FFFFFF" font-family="Neo Sans Std,Neo Sans Std_MSFontService,sans-serif" font-weight="400" font-size="24" transform="translate(26.5475 213)">Input</text><path d="M532.5 183C532.5 177.201 537.201 172.5 543 172.5L623 172.5C628.799 172.5 633.5 177.201 633.5 183L633.5 225C633.5 230.799 628.799 235.5 623 235.5L543 235.5C537.201 235.5 532.5 230.799 532.5 225Z" stroke="#172C51" stroke-width="1.33333" stroke-miterlimit="8" fill="#4472C4" fill-rule="evenodd"/><text fill="#FFFFFF" font-family="Neo Sans Std,Neo Sans Std_MSFontService,sans-serif" font-weight="400" font-size="24" transform="translate(545.394 212)">Output</text><path d="M0.0118168-0.666562 61.9834 0.432068 61.9598 1.76519-0.0118168 0.666562ZM60.7094-2.92437 68.6373 1.2168 60.5676 5.07437Z" fill="#00B050" transform="matrix(1 0 0 -1 463.5 204.717)"/><text font-family="Calibri,Calibri_MSFontService,sans-serif" font-weight="400" font-size="13" transform="translate(197.042 224)">Î±</text><text font-family="Cambria Math,Cambria Math_MSFontService,sans-serif" font-weight="400" font-size="9" transform="translate(204.542 227)">2</text><text font-family="Cambria Math,Cambria Math_MSFontService,sans-serif" font-weight="400" font-size="13" transform="translate(210.762 224)">(</text><text font-family="Cambria Math,Cambria Math_MSFontService,sans-serif" font-weight="400" font-size="13" transform="translate(216.262 224)">ğ´</text><text font-family="Cambria Math,Cambria Math_MSFontService,sans-serif" font-weight="400" font-size="9" transform="translate(224.762 227)">2</text><text font-family="Cambria Math,Cambria Math_MSFontService,sans-serif" font-weight="400" font-size="13" transform="translate(230.982 224)">,</text><text font-family="Cambria Math,Cambria Math_MSFontService,sans-serif" font-weight="400" font-size="13" transform="translate(235.868 224)">ğµ</text><text font-family="Cambria Math,Cambria Math_MSFontService,sans-serif" font-weight="400" font-size="9" transform="translate(244.115 227)">2</text><text font-family="Cambria Math,Cambria Math_MSFontService,sans-serif" font-weight="400" font-size="13" transform="translate(250.335 224)">)</text><text font-family="Calibri,Calibri_MSFontService,sans-serif" font-weight="400" font-size="13" transform="translate(197.445 244)">Î±</text><text font-family="Cambria Math,Cambria Math_MSFontService,sans-serif" font-weight="400" font-size="9" transform="translate(204.945 247)">ğ‘›</text><text font-family="Cambria Math,Cambria Math_MSFontService,sans-serif" font-weight="400" font-size="13" transform="translate(211.998 244)">(</text><text font-family="Cambria Math,Cambria Math_MSFontService,sans-serif" font-weight="400" font-size="13" transform="translate(217.498 244)">ğ´</text><text font-family="Cambria Math,Cambria Math_MSFontService,sans-serif" font-weight="400" font-size="9" transform="translate(225.998 247)">ğ‘›</text><text font-family="Cambria Math,Cambria Math_MSFontService,sans-serif" font-weight="400" font-size="13" transform="translate(233.051 244)">,</text><text font-family="Cambria Math,Cambria Math_MSFontService,sans-serif" font-weight="400" font-size="13" transform="translate(237.938 244)">ğµ</text><text font-family="Cambria Math,Cambria Math_MSFontService,sans-serif" font-weight="400" font-size="9" transform="translate(245.598 247)">ğ‘›</text><text font-family="Cambria Math,Cambria Math_MSFontService,sans-serif" font-weight="400" font-size="13" transform="translate(252.651 244)">)</text><path d="M300.5 26.1667 318.312 26.1667 318.312 93.1358 317.646 93.1358 317.646 26.5001 317.979 26.8334 300.5 26.8334ZM321.979 91.8024 317.979 99.8024 313.979 91.8024Z" fill="#00B050"/></g></svg>